<svg width="60" height="60" viewBox="0 0 60 60" fill="none" xmlns="http://www.w3.org/2000/svg">
<circle cx="30" cy="30" r="30" fill="#DBEAFE"/>
<path d="M41.7083 35.7916H44.625C45.5 35.7916 46.0833 35.2083 46.0833 34.3333V29.9583C46.0833 28.6458 45.0625 27.4791 43.8958 27.1874C41.2708 26.4583 37.3333 25.5833 37.3333 25.5833C37.3333 25.5833 35.4375 23.5416 34.125 22.2291C33.3958 21.6458 32.5208 21.2083 31.5 21.2083H21.2917C20.4167 21.2083 19.6875 21.7916 19.25 22.5208L17.2083 26.7499C17.0152 27.3132 16.9167 27.9045 16.9167 28.4999V34.3333C16.9167 35.2083 17.5 35.7916 18.375 35.7916H21.2917" stroke="#155DFC" stroke-width="2" stroke-linecap="round" stroke-linejoin="round"/>
<path d="M24.2083 38.7083C25.8192 38.7083 27.125 37.4025 27.125 35.7917C27.125 34.1808 25.8192 32.875 24.2083 32.875C22.5975 32.875 21.2917 34.1808 21.2917 35.7917C21.2917 37.4025 22.5975 38.7083 24.2083 38.7083Z" stroke="#155DFC" stroke-width="2" stroke-linecap="round" stroke-linejoin="round"/>
<path d="M27.125 35.7917H35.875" stroke="#155DFC" stroke-width="2" stroke-linecap="round" stroke-linejoin="round"/>
<path d="M38.7917 38.7083C40.4025 38.7083 41.7083 37.4025 41.7083 35.7917C41.7083 34.1808 40.4025 32.875 38.7917 32.875C37.1808 32.875 35.875 34.1808 35.875 35.7917C35.875 37.4025 37.1808 38.7083 38.7917 38.7083Z" stroke="#155DFC" stroke-width="2" stroke-linecap="round" stroke-linejoin="round"/>
</svg>
